# xmcd
#
# Track frame offsets:
#	150
#	18459
#	34500
#	54655
#	73537
#	90271
#	95031
#	113546
#	132502
#
# Disc length: 2046 seconds
#
# Revision: 1
# Processed by: cddbd v1.5.2PL0 Copyright (c) Steve Scherf et al.
# Submitted via: audiograbber 1.83.01
#
DISCID=6e07fc09
DTITLE=Inevitable End - The Severed Inception
DYEAR=2009
DGENRE=Death Metal
TTITLE0=The severed inception
TTITLE1=Dreamsight synopsis
TTITLE2=Embracing the origin
TTITLE3=Persevering incitement
TTITLE4=Collapse in reverse
TTITLE5=Distorted
TTITLE6=Firstborn of all dead
TTITLE7=Apprentice luminious acquaintance
TTITLE8=The art of corruption
EXTD=
EXTT0=
EXTT1=
EXTT2=
EXTT3=
EXTT4=
EXTT5=
EXTT6=
EXTT7=
EXTT8=
PLAYORDER=
